<svg width="24" height="24" viewBox="0 0 24 24" fill="none" xmlns="http://www.w3.org/2000/svg">
<circle cx="12" cy="12" r="12" fill="white"/>
<path d="M11.4526 19V17.8721H12.5732V19H11.4526ZM12.4854 15.8213H11.5405V15.5356C11.5405 15.2134 11.5796 14.9326 11.6577 14.6934C11.7358 14.4541 11.8384 14.2441 11.9653 14.0635C12.0972 13.8828 12.2437 13.7217 12.4048 13.5801C12.5708 13.4385 12.7393 13.3042 12.9102 13.1772C13.0859 13.0454 13.2544 12.9136 13.4155 12.7817C13.5815 12.6499 13.728 12.5034 13.855 12.3423C13.9868 12.1812 14.0918 11.998 14.1699 11.793C14.248 11.5879 14.2871 11.3462 14.2871 11.0679V10.9287C14.2871 10.6943 14.2432 10.4771 14.1553 10.2769C14.0674 10.0718 13.9453 9.89355 13.7891 9.74219C13.6377 9.59082 13.4595 9.47119 13.2544 9.3833C13.0542 9.29541 12.8369 9.25146 12.6025 9.25146H12.3975C12.1631 9.25146 11.9434 9.29541 11.7383 9.3833C11.5381 9.47119 11.3599 9.59082 11.2036 9.74219C11.0522 9.89355 10.9326 10.0718 10.8447 10.2769C10.7568 10.4771 10.7129 10.6943 10.7129 10.9287V11.3535L9.76807 11.1997V10.9287C9.76807 10.5723 9.83398 10.2378 9.96582 9.92529C10.1025 9.61279 10.2881 9.33936 10.5225 9.10498C10.7568 8.87061 11.0303 8.6875 11.3428 8.55566C11.6602 8.41895 11.9971 8.35059 12.3535 8.35059H12.6538C13.0103 8.35059 13.3447 8.41895 13.6572 8.55566C13.9697 8.6875 14.2432 8.87061 14.4775 9.10498C14.7119 9.33936 14.895 9.61279 15.0269 9.92529C15.1636 10.2378 15.2319 10.5723 15.2319 10.9287V11.0679C15.2319 11.4048 15.1929 11.7002 15.1147 11.9541C15.0366 12.208 14.9316 12.4326 14.7998 12.6279C14.6729 12.8232 14.5264 12.9966 14.3604 13.1479C14.1992 13.2993 14.0308 13.4409 13.855 13.5728C13.6841 13.7046 13.5156 13.834 13.3496 13.9609C13.1885 14.0879 13.042 14.2271 12.9102 14.3784C12.7832 14.5298 12.6807 14.6982 12.6025 14.8838C12.5244 15.0693 12.4854 15.2866 12.4854 15.5356V15.8213Z" fill="#1D1C1C"/>
</svg>
