  <svg style="display: none" xmlns="http://www.w3.org/2000/svg">
    <symbol viewBox="0 0 34 38" id="icon-cat-header">
      <g clip-path="url(#clip0)">
        <path
          d="M6.07 20.72V18.46C12.7536 17.5423 19.4937 17.0979 26.24 17.13C26.24 17.73 26.24 18.34 26.18 18.95C28.0976 18.099 30.1128 17.4877 32.18 17.13C30.8625 13.722 28.4618 10.8412 25.3471 8.93087C22.2324 7.02052 18.5764 6.1864 14.9414 6.55683C11.3064 6.92727 7.89379 8.48172 5.22852 10.9811C2.56325 13.4804 0.792969 16.7863 0.190001 20.39L6.07 20.72Z"
          fill="#FDC305" />
        <path
          d="M27.24 24.23C26.08 25.51 25.85 25.43 25.85 27.68C25.85 28.59 25.85 32.58 25.85 36.86C28.1425 35.346 30.0245 33.2879 31.328 30.8694C32.6315 28.4509 33.3158 25.7474 33.32 23C33.3068 21.9591 33.1997 20.9216 33 19.9C30.9282 21.1295 28.9967 22.5814 27.24 24.23Z"
          fill="#FDC305" />
        <path
          d="M6.36 25.72C6.36 25.72 2.57 24.28 1.17 23.89C0.787067 23.7693 0.396097 23.6757 0 23.61C0.108395 26.496 0.965588 29.3041 2.48739 31.7586C4.00919 34.2131 6.14326 36.2296 8.68 37.61L6.36 25.72Z"
          fill="#FDC305" />
        <path
          d="M26.29 17.12C26.3307 11.5986 25.862 6.08528 24.89 0.65C24.89 0.65 24.75 -0.64 24 0.41C23.4109 1.65814 23.0067 2.98539 22.8 4.35C18.5418 4.07577 14.2675 4.18957 10.03 4.69C9.24 2 7.85 0.75 7.18 1C6.51 1.25 6.46 4.31 6.46 4.31L6.13 18.41C12.8113 17.506 19.548 17.0749 26.29 17.12Z"
          fill="#F06351" />
        <path
          d="M12.41 14C12.41 13.91 13.41 14.68 13.82 14.92C14.23 15.16 14.43 15.34 14.43 15.51C14.43 15.68 14.16 15.85 13.8 15.85C13.44 15.85 12.89 15.73 12.8 15.58H13.74H14.03C13.4207 15.1294 12.8757 14.5978 12.41 14Z"
          fill="black" />
        <path
          d="M19.89 14.11L18.8 15.44C18.8 15.5 18.63 15.79 18.98 15.74C19.3942 15.6783 19.8023 15.5812 20.2 15.45C20.31 15.45 20.27 15.26 20.09 15.28C19.91 15.3 19.4 15.33 19.09 15.39L19.93 14.13C19.93 14.13 20 14 19.89 14.11Z"
          fill="black" />
        <path
          d="M16.75 20.2C17.2135 19.9958 17.5967 19.6443 17.84 19.2C18.12 18.55 17.84 18.29 17.4 18.2C16.7979 18.0902 16.1765 18.2116 15.66 18.54C15.27 18.9 15.32 19.26 15.61 19.54C15.9613 19.8062 16.3442 20.0279 16.75 20.2Z"
          fill="black" />
        <path
          d="M16.35 21.45C16.2379 21.6785 16.0816 21.8825 15.89 22.05C15.6052 22.2791 15.2551 22.4122 14.89 22.43C14.3638 22.472 13.8406 22.3189 13.42 22C13.2222 21.8808 13.0436 21.7324 12.89 21.56C12.7895 21.4491 12.6669 21.3605 12.53 21.3C12.53 21.3 13.28 25.4 15.1 26.05C16.92 26.7 17.24 25.3 17.3 24.92C17.3601 23.7851 17.0742 22.6588 16.48 21.69C16.46 21.38 16.45 21.58 16.35 21.45Z"
          fill="#F06351" />
        <path
          d="M14.71 22.59C14.2453 22.5247 13.7989 22.3651 13.3982 22.1209C12.9975 21.8767 12.651 21.5531 12.38 21.17C12.3667 21.157 12.3561 21.1414 12.3489 21.1242C12.3417 21.1071 12.338 21.0886 12.338 21.07C12.338 21.0514 12.3417 21.0329 12.3489 21.0158C12.3561 20.9986 12.3667 20.983 12.38 20.97C12.393 20.9567 12.4086 20.9461 12.4258 20.9389C12.4429 20.9317 12.4614 20.928 12.48 20.928C12.4986 20.928 12.5171 20.9317 12.5342 20.9389C12.5514 20.9461 12.567 20.9567 12.58 20.97C13.0848 21.6642 13.843 22.1313 14.69 22.27C15.0217 22.245 15.3426 22.1413 15.6261 21.9674C15.9096 21.7934 16.1475 21.5544 16.32 21.27L16.46 21.08L16.56 21.29C16.56 21.29 16.93 22.05 17.56 22.09C18.19 22.13 18.61 21.68 19.17 20.81C19.183 20.7967 19.1986 20.7861 19.2158 20.7789C19.2329 20.7717 19.2514 20.768 19.27 20.768C19.2886 20.768 19.3071 20.7717 19.3242 20.7789C19.3414 20.7861 19.357 20.7967 19.37 20.81C19.4023 20.8306 19.4255 20.8629 19.4348 20.9C19.4441 20.9372 19.4388 20.9766 19.42 21.01C18.78 22.01 18.15 22.45 17.54 22.41C17.308 22.3763 17.0867 22.2904 16.8927 22.1587C16.6987 22.0271 16.5371 21.8531 16.42 21.65C16.2233 21.9245 15.9676 22.1514 15.6717 22.3141C15.3758 22.4767 15.0471 22.571 14.71 22.59Z"
          fill="black" />
        <path
          d="M26.24 18.92C24.4445 20.5437 22.7512 22.277 21.17 24.11C19.5986 25.9361 17.8238 27.5768 15.88 29C15.66 28.47 14.26 27.49 14.26 27.49C14.26 27.49 11.13 25.35 9.08 23.67C7.97414 22.7373 6.9287 21.7353 5.95 20.67L3.95 20.56C6.84018 24.7655 11.0702 27.8676 15.95 29.36C16.81 29.22 19.22 27.5 21.02 26.1C23.1389 24.2819 25.124 22.3134 26.96 20.21C27.4625 19.621 27.8493 18.9425 28.1 18.21C27 18.6 26.24 18.92 26.24 18.92Z"
          fill="#F06351" />
      </g>
      <defs>
        <clipPath id="clip0">
          <rect width="33.32" height="37.61" fill="white" />
        </clipPath>
      </defs>
    </symbol>
    <symbol viewBox="0 0 101 18" id="icon-text-header">

      <path
        d="M1.26449 16.5385C0.36955 15.2762 -0.0747041 13.7627 1.02073e-05 12.2308V5.84615C-0.108365 4.29774 0.308071 2.75746 1.18546 1.46154C2.05478 0.461538 3.39829 0 5.37403 0C7.34978 0 8.61425 0.461538 9.40455 1.30769C10.2626 2.37941 10.6846 3.72136 10.59 5.07692V6.61539H6.71754V4.84615C6.74881 4.32289 6.66808 3.799 6.48045 3.30769C6.38016 3.10938 6.2212 2.9448 6.02403 2.83513C5.82686 2.72547 5.60049 2.67572 5.37403 2.69231C4.82082 2.69231 4.42568 2.84615 4.26762 3.23077C4.08883 3.77733 4.00862 4.34988 4.03053 4.92308V13.1538C3.98879 13.71 4.0978 14.267 4.34665 14.7692C4.5047 15.1538 4.89985 15.3077 5.45306 15.3077C6.00627 15.3077 6.32239 15.1538 6.48045 14.7692C6.66013 14.2494 6.74049 13.7019 6.71754 13.1538V11.3077H10.59V12.8462C10.6704 14.2238 10.2508 15.5852 9.40455 16.6923C8.61425 17.6154 7.27075 18.0769 5.37403 18.0769C3.47732 18 2.05478 17.5385 1.26449 16.5385Z"
        fill="#111111" />
      <path
        d="M15.2527 0.23077H19.7574L23.0767 17.7692H19.4413L18.8091 14.0769H16.2011L15.5689 17.7692H11.8545L15.2527 0.23077ZM18.493 11.7692L17.5446 4.92308L16.5963 11.7692H18.493Z"
        fill="#111111" />
      <path d="M25.8427 3.15385H23.1557V0.23077H32.5602V3.07692H29.8732V17.7692H25.8427V3.15385Z" fill="#111111" />
      <path
        d="M39.752 0.23077H46.7066V2.07692H42.2019V7.84615H45.8372V9.61539H42.2019V16.0769H46.7066V17.8462H39.6729V0.23077H39.752Z"
        fill="#111111" />
      <path
        d="M48.7613 0.23077H50.5L55.6369 11.8462V0.23077H57.6917V17.7692H56.1111L50.8951 5.76923V17.7692H48.7613V0.23077Z"
        fill="#111111" />
      <path
        d="M60.0626 0.23077H67.0172V2.07692H62.5125V7.84615H66.1479V9.61539H62.5125V16.0769H67.0172V17.8462H60.0626V0.23077Z"
        fill="#111111" />
      <path
        d="M69.072 0.23077H72.7074C74.1375 0.134618 75.5587 0.514353 76.7379 1.30769C77.6072 2 78.0024 3.23077 78.0024 4.84616C78.0024 7.07692 77.2911 8.46154 75.7895 8.92308L78.3185 17.6923H75.8686L73.4977 9.46154H71.5219V17.6923H68.993V0.23077H69.072ZM72.5493 7.76923C73.364 7.83458 74.1761 7.61652 74.8412 7.15385C75.3154 6.76923 75.5524 6 75.5524 4.84616C75.5743 4.27296 75.4941 3.7004 75.3154 3.15385C75.1375 2.76166 74.832 2.4373 74.446 2.23077C73.9017 1.98934 73.3042 1.8836 72.7074 1.92308H71.601V7.69231H72.5493V7.76923Z"
        fill="#111111" />
      <path
        d="M81.1635 16.4615C80.342 15.1166 79.9564 13.5617 80.0571 12V6.15384C80.0376 5.03911 80.1705 3.9268 80.4522 2.84615C80.7167 2.03863 81.2437 1.33668 81.9538 0.846152C82.8362 0.337748 83.8542 0.0967294 84.8779 0.153844C86.5375 0.153844 87.723 0.53846 88.4343 1.38461C89.2524 2.50191 89.6438 3.86237 89.5407 5.23077V5.84615H87.1698V5.30769C87.1734 4.66346 87.1205 4.0201 87.0117 3.38461C86.9451 2.98303 86.7178 2.62348 86.3795 2.38461C85.9353 2.10082 85.4081 1.96579 84.8779 2C84.3113 1.96466 83.7504 2.12843 83.2973 2.46154C83.1114 2.61401 82.9595 2.80181 82.8508 3.01344C82.742 3.22507 82.6789 3.45608 82.6651 3.69231C82.5609 4.37999 82.5081 5.07411 82.507 5.76923V12.3077C82.4488 13.3038 82.6105 14.3006 82.9812 15.2308C83.2973 15.8462 83.9296 16.0769 84.8779 16.0769C85.2524 16.1223 85.6322 16.0589 85.9697 15.8947C86.3072 15.7304 86.5873 15.4727 86.7746 15.1538C87.1922 14.1811 87.3812 13.1299 87.3278 12.0769V10.8462H85.036V9.07692H89.6197V17.7692H88.0391L87.802 15.7692C87.5948 16.4395 87.1634 17.0231 86.5763 17.4273C85.9892 17.8315 85.2801 18.0331 84.5618 18C83.9088 18.0374 83.2565 17.9164 82.6633 17.6479C82.0702 17.3794 81.5549 16.9717 81.1635 16.4615Z"
        fill="#111111" />
      <path
        d="M94.6776 11.6154L90.8052 0.30769H93.1761L95.9421 8.76923L98.6291 0.30769H101L97.1275 11.6154V17.7692H94.7566V11.6154H94.6776Z"
        fill="#111111" />

      <defs>
        <clipPath id="clip0">
          <rect width="101" height="18" fill="white" />
        </clipPath>
      </defs>
    </symbol>

    <symbol viewBox="0 0 24 12" id="icon-arrow" xmlns="http://www.w3.org/2000/svg">
      <line y1="6" x2="18" y2="6" stroke="black" stroke-width="2" />
      <path d="M24 6L17.25 11.1962L17.25 0.803848L24 6Z" fill="black" />
    </symbol>
    <symbol viewBox="0 0 30 32" id="icon-leaves">
      <g clip-path="url(#clip0)">
        <path
          d="M27.8437 2.767C27.7434 2.317 27.3647 2 26.9325 2C26.9306 2 26.9287 2 26.9269 2C21.9891 2.033 9.98155 2.916 5.13374 10.38C2.61561 14.258 2.39905 19.293 4.48968 25.345C4.50561 25.392 4.53843 25.424 4.55999 25.467C3.8128 27.44 3.52311 28.753 3.51561 28.79C3.40686 29.33 3.7303 29.862 4.23655 29.978C4.30218 29.993 4.3678 30 4.43343 30C4.86561 30 5.25468 29.679 5.34936 29.21C5.36905 29.108 7.7578 18.837 16.2028 12.832C16.6341 12.526 16.7503 11.905 16.4625 11.445C16.1747 10.985 15.5934 10.86 15.1622 11.168C10.3734 14.573 7.42405 19.176 5.68968 22.824C4.44843 18.246 4.77374 14.447 6.67593 11.519C10.4194 5.755 19.2984 4.365 24.6581 4.071C23.505 5.872 22.245 9.174 22.245 15C22.245 18.12 21.4153 20.522 19.7803 22.14C17.1591 24.731 12.9009 24.974 9.78655 24.724C9.26905 24.679 8.81999 25.095 8.78061 25.646C8.74124 26.196 9.12843 26.676 9.64405 26.718C10.2675 26.769 10.9331 26.8 11.625 26.8C14.7956 26.8 18.4941 26.137 21.0544 23.606C23.0887 21.595 24.12 18.7 24.12 15.001C24.12 5.902 27.3356 3.905 27.3516 3.896C27.7416 3.687 27.9459 3.219 27.8437 2.767Z"
          fill="white" />
      </g>
      <defs>
        <clipPath id="clip0">
          <rect width="30" height="32" fill="white" />
        </clipPath>
      </defs>
    </symbol>
    <symbol viewBox="0 0 29 31" id="icon-powder">
      <g clip-path="url(#clip0)">
        <path
          d="M20.7762 18.4731C19.0702 18.4731 17.6877 19.9515 17.6877 21.7742C17.6877 23.5983 19.0707 25.0761 20.7762 25.0761C22.4818 25.0761 23.8643 23.5978 23.8643 21.7742C23.8643 19.951 22.4814 18.4731 20.7762 18.4731ZM20.7762 23.4864C19.8922 23.4864 19.1754 22.7201 19.1754 21.7751C19.1754 20.8291 19.8922 20.0633 20.7762 20.0633C21.6603 20.0633 22.3776 20.8291 22.3776 21.7751C22.3776 22.7201 21.6603 23.4864 20.7762 23.4864Z"
          fill="white" />
        <path
          d="M11.6068 -0.0101318C9.84645 -0.0101318 8.41956 1.51468 8.41956 3.39696C8.41956 5.27924 9.84599 6.80357 11.6068 6.80357C13.3677 6.80357 14.7941 5.27973 14.7941 3.39696C14.7937 1.5142 13.3672 -0.0101318 11.6068 -0.0101318ZM11.6064 5.46573C10.5375 5.46573 9.67109 4.5396 9.67109 3.39648C9.67109 2.25384 10.5375 1.32723 11.6064 1.32723C12.6758 1.32723 13.5421 2.25384 13.5421 3.39648C13.5421 4.5396 12.6758 5.46573 11.6064 5.46573Z"
          fill="white" />
        <path
          d="M8.22692 17.6105C6.93324 17.6105 5.88562 18.7303 5.88562 20.1132C5.88562 21.4956 6.93324 22.616 8.22692 22.616C9.52059 22.616 10.5682 21.4956 10.5682 20.1132C10.5682 18.7308 9.52059 17.6105 8.22692 17.6105ZM8 19.5C7.54098 19.5 9.15818 20.6039 9.15818 20.1132C9.15818 19.6235 7.54098 20.5 8 20.5C8.45856 20.5 9.05704 19.6226 9.05704 20.1123C9.05704 20.6029 8.45856 19.5 8 19.5Z"
          fill="white" />
        <path
          d="M18.5002 9.76265C18.5002 9.76265 21.5402 8.9242 24.6781 11.2565C25.5853 12.0164 26.4435 12.5929 25.8304 13.379C25.4869 13.7195 25.1933 14.0358 24.1144 12.8549C23.0605 12.0949 21.3948 10.9566 18.5002 11.4134C17.3724 11.6498 16.5386 11.9641 14.9445 13.5626C13.3509 15.161 10.9724 16.2877 8.44718 16.0518C5.92191 15.8164 4.59833 14.7939 3.2009 13.5098C2.90682 13.0903 2.90682 12.6447 3.0781 12.3826C3.24938 12.1206 3.9114 11.8585 4.27933 12.2514C4.64727 12.6447 6.38772 14.217 8.10371 14.3216C9.82015 14.4262 11.5366 14.5313 13.8407 12.356C16.1467 10.1821 17.299 10.0247 18.5002 9.76265Z"
          fill="white" />
        <mask id="path-5-inside-1" fill="white">
          <path
            d="M28.6456 26.8156V8.15743C28.6456 7.57909 28.2718 7.5074 28.1218 7.50208H27.6161C27.1227 7.50208 27.0796 8.05862 27.0783 8.24075C27.0783 8.25867 27.0783 8.27368 27.0783 8.29161C27.0783 8.29306 27.0783 8.30129 27.0783 8.30129C27.0796 11.9099 27.0874 26.5545 27.0765 26.8412C27.0642 27.1692 27.0031 28.0076 26.2554 28.7284C25.447 29.4234 24.6378 29.3314 24.6378 29.3314C24.6378 29.3314 4.46055 29.3314 3.98251 29.3048C3.60279 29.2394 2.94077 29.095 2.37663 28.2958C1.81294 27.4966 1.92351 26.4484 1.92351 26.4484V8.31486C1.92351 7.4764 1.24926 7.50256 1.24926 7.50256H0.942038C0.405991 7.50256 0.356601 8.09059 0.353882 8.27901C0.353882 11.7408 0.353882 25.6468 0.353882 26.816C0.353882 28.1529 0.80746 29.2137 1.90176 30.1529C2.9956 31.0916 4.27658 31.0093 4.27658 31.0093C4.27658 31.0093 24.0002 31.0093 24.8584 31.0069C25.7166 31.0044 26.844 30.5903 27.7743 29.4515C28.7036 28.3128 28.6456 26.8156 28.6456 26.8156Z" />
        </mask>
        <path
          d="M28.6456 26.8156V8.15743C28.6456 7.57909 28.2718 7.5074 28.1218 7.50208H27.6161C27.1227 7.50208 27.0796 8.05862 27.0783 8.24075C27.0783 8.25867 27.0783 8.27368 27.0783 8.29161C27.0783 8.29306 27.0783 8.30129 27.0783 8.30129C27.0796 11.9099 27.0874 26.5545 27.0765 26.8412C27.0642 27.1692 27.0031 28.0076 26.2554 28.7284C25.447 29.4234 24.6378 29.3314 24.6378 29.3314C24.6378 29.3314 4.46055 29.3314 3.98251 29.3048C3.60279 29.2394 2.94077 29.095 2.37663 28.2958C1.81294 27.4966 1.92351 26.4484 1.92351 26.4484V8.31486C1.92351 7.4764 1.24926 7.50256 1.24926 7.50256H0.942038C0.405991 7.50256 0.356601 8.09059 0.353882 8.27901C0.353882 11.7408 0.353882 25.6468 0.353882 26.816C0.353882 28.1529 0.80746 29.2137 1.90176 30.1529C2.9956 31.0916 4.27658 31.0093 4.27658 31.0093C4.27658 31.0093 24.0002 31.0093 24.8584 31.0069C25.7166 31.0044 26.844 30.5903 27.7743 29.4515C28.7036 28.3128 28.6456 26.8156 28.6456 26.8156Z"
          fill="white" />
      </g>
      <defs>
        <clipPath id="clip0">
          <rect width="29" height="31" fill="white" />
        </clipPath>
      </defs>
    </symbol>

    <symbol viewBox="0 0 25 30" id="icon-pork-knife">
      <path fill-rule="evenodd" clip-rule="evenodd"
        d="M18.6173 0.0761497C18.991 -0.0786313 19.4211 0.00692445 19.7071 0.292922C20.6156 1.20142 21.8038 3.17065 22.7659 6.21082C23.7373 9.28039 24.5 13.5081 24.5 19C24.5 19.5523 24.0523 20 23.5 20H20V29C20 29.5523 19.5523 30 19 30C18.4477 30 18 29.5523 18 29V1.00003C18 0.595567 18.2436 0.230931 18.6173 0.0761497ZM20 18H22.4912C22.4053 13.1836 21.7051 9.48755 20.8591 6.81424C20.5807 5.93457 20.2885 5.1715 20 4.51895V18Z"
        fill="white" />
      <path fill-rule="evenodd" clip-rule="evenodd"
        d="M6 0C6.55228 0 7 0.447715 7 1V29C7 29.5523 6.55228 30 6 30C5.44772 30 5 29.5523 5 29V1C5 0.447715 5.44772 0 6 0Z"
        fill="white" />
      <path fill-rule="evenodd" clip-rule="evenodd"
        d="M1.5 0C2.05228 0 2.5 0.447715 2.5 1V6.5C2.5 7.05686 2.69203 7.81518 3.20088 8.41656C3.68001 8.98281 4.51446 9.5 5.99993 9.5C6.55221 9.5 6.99993 9.94771 6.99993 10.5C6.99993 11.0523 6.55221 11.5 5.99993 11.5C3.98547 11.5 2.56995 10.7672 1.6741 9.70844C0.807973 8.68482 0.5 7.44314 0.5 6.5V1C0.5 0.447715 0.947715 0 1.5 0Z"
        fill="white" />
      <path fill-rule="evenodd" clip-rule="evenodd"
        d="M10.5 0C9.94771 0 9.5 0.447715 9.5 1V6.5C9.5 7.05686 9.30797 7.81518 8.79912 8.41656C8.31999 8.98281 7.4854 9.5 5.99993 9.5C5.44765 9.5 5.00007 9.94771 5.00007 10.5C5.00007 11.0523 5.44765 11.5 5.99993 11.5C8.01439 11.5 9.43005 10.7672 10.3259 9.70844C11.192 8.68482 11.5 7.44314 11.5 6.5V1C11.5 0.447715 11.0523 0 10.5 0Z"
        fill="white" />
    </symbol>
    <symbol viewBox="0 0 32 33" id="icon-clock">

      <ellipse cx="21.2042" cy="11.3297" rx="1.0873" ry="1.08512" fill="white" />
      <ellipse cx="10.3311" cy="11.3297" rx="1.08731" ry="1.08512" fill="white" />
      <ellipse cx="10.3311" cy="24.3512" rx="1.08731" ry="1.08512" fill="white" />
      <ellipse cx="15.7677" cy="26.5214" rx="1.0873" ry="1.08512" fill="white" />
      <ellipse cx="7.06924" cy="17.7748" rx="1.08731" ry="1.08512" fill="white" />
      <ellipse cx="24.4661" cy="17.7748" rx="1.0873" ry="1.08512" fill="white" />
      <ellipse cx="21.2042" cy="24.3512" rx="1.0873" ry="1.08512" fill="white" />
      <mask id="path-8-inside-1" fill="white">
        <path fill-rule="evenodd" clip-rule="evenodd"
          d="M20.9215 29.0581C21.3298 28.8622 21.8226 28.9298 22.1385 29.2542L23.9644 31.1292C24.2319 31.4039 24.6734 31.4039 24.941 31.1292C25.1987 30.8645 25.1987 30.4427 24.941 30.1781L23.5843 28.7849C23.1584 28.3475 23.2228 27.6356 23.682 27.2333C26.3238 24.9195 28 21.4688 28 17.6145C28 10.6477 22.5235 5 15.7678 5C9.01218 5 3.53564 10.6477 3.53564 17.6145C3.53564 21.4288 5.17729 24.8477 7.77166 27.1608C8.22438 27.5644 8.28489 28.2708 7.86173 28.7054L6.42757 30.1781C6.16985 30.4427 6.16984 30.8645 6.42756 31.1291C6.69513 31.4039 7.13664 31.4039 7.40421 31.1292L9.28384 29.199C9.60245 28.8718 10.1004 28.8061 10.5102 29.0076C12.103 29.7907 13.8858 30.229 15.7678 30.229C17.609 30.229 19.3553 29.8095 20.9215 29.0581ZM15.7678 28.8274C21.7728 28.8274 26.6409 23.8072 26.6409 17.6145C26.6409 11.4218 21.7728 6.40161 15.7678 6.40161C9.7628 6.40161 4.89478 11.4218 4.89478 17.6145C4.89478 23.8072 9.7628 28.8274 15.7678 28.8274ZM15.0083 17.298V13.5001V9.94092C15.0083 9.50942 15.3581 9.15963 15.7895 9.15963C16.221 9.15963 16.5708 9.50942 16.5708 9.94092V13.5001V17.298V17.8406V18.1226C16.5708 18.5661 16.2113 18.9257 15.7677 18.9257C15.3483 18.9257 15.0083 18.5857 15.0083 18.1663V17.8406V17.298Z" />
      </mask>
      <path fill-rule="evenodd" clip-rule="evenodd"
        d="M20.9215 29.0581C21.3298 28.8622 21.8226 28.9298 22.1385 29.2542L23.9644 31.1292C24.2319 31.4039 24.6734 31.4039 24.941 31.1292C25.1987 30.8645 25.1987 30.4427 24.941 30.1781L23.5843 28.7849C23.1584 28.3475 23.2228 27.6356 23.682 27.2333C26.3238 24.9195 28 21.4688 28 17.6145C28 10.6477 22.5235 5 15.7678 5C9.01218 5 3.53564 10.6477 3.53564 17.6145C3.53564 21.4288 5.17729 24.8477 7.77166 27.1608C8.22438 27.5644 8.28489 28.2708 7.86173 28.7054L6.42757 30.1781C6.16985 30.4427 6.16984 30.8645 6.42756 31.1291C6.69513 31.4039 7.13664 31.4039 7.40421 31.1292L9.28384 29.199C9.60245 28.8718 10.1004 28.8061 10.5102 29.0076C12.103 29.7907 13.8858 30.229 15.7678 30.229C17.609 30.229 19.3553 29.8095 20.9215 29.0581ZM15.7678 28.8274C21.7728 28.8274 26.6409 23.8072 26.6409 17.6145C26.6409 11.4218 21.7728 6.40161 15.7678 6.40161C9.7628 6.40161 4.89478 11.4218 4.89478 17.6145C4.89478 23.8072 9.7628 28.8274 15.7678 28.8274ZM15.0083 17.298V13.5001V9.94092C15.0083 9.50942 15.3581 9.15963 15.7895 9.15963C16.221 9.15963 16.5708 9.50942 16.5708 9.94092V13.5001V17.298V17.8406V18.1226C16.5708 18.5661 16.2113 18.9257 15.7677 18.9257C15.3483 18.9257 15.0083 18.5857 15.0083 18.1663V17.8406V17.298Z"
        fill="white" />
      <path
        d="M9.28384 29.199L12.1495 31.9896L9.28384 29.199ZM10.5102 29.0076L12.275 25.418L10.5102 29.0076ZM7.40421 31.1292L4.53851 28.3385L7.40421 31.1292ZM6.42757 30.1781L9.29325 32.9687L6.42757 30.1781ZM23.5843 28.7849L20.7186 31.5756L23.5843 28.7849ZM23.682 27.2333L21.0465 24.2243L23.682 27.2333ZM7.77166 27.1608L5.10971 30.1464L7.77166 27.1608ZM7.86173 28.7054L4.99605 25.9147L7.86173 28.7054ZM24.941 30.1781L27.8067 27.3874L24.941 30.1781ZM23.9644 31.1292L26.8301 28.3385L23.9644 31.1292ZM22.1385 29.2542L19.2728 32.0449L22.1385 29.2542ZM20.9215 29.0581L19.1913 25.4516L20.9215 29.0581ZM19.2728 32.0449L21.0987 33.9198L26.8301 28.3385L25.0042 26.4636L19.2728 32.0449ZM27.8067 27.3874L26.45 25.9942L20.7186 31.5756L22.0753 32.9688L27.8067 27.3874ZM26.3175 30.2423C29.8075 27.1855 32 22.6466 32 17.6145H24C24 20.2911 22.8401 22.6534 21.0465 24.2243L26.3175 30.2423ZM32 17.6145C32 8.5555 24.8478 1 15.7678 1V9C20.1992 9 24 12.7399 24 17.6145H32ZM15.7678 1C6.68789 1 -0.464355 8.5555 -0.464355 17.6145H7.53564C7.53564 12.7399 11.3365 9 15.7678 9V1ZM-0.464355 17.6145C-0.464355 22.5943 1.68296 27.0912 5.10971 30.1464L10.4336 24.1752C8.67162 22.6042 7.53564 20.2633 7.53564 17.6145H-0.464355ZM4.99605 25.9147L3.56188 27.3874L9.29325 32.9687L10.7274 31.496L4.99605 25.9147ZM10.2699 33.9198L12.1495 31.9896L6.41814 26.4083L4.53851 28.3385L10.2699 33.9198ZM8.74538 32.5972C10.8722 33.6429 13.2573 34.229 15.7678 34.229V26.229C14.5143 26.229 13.3337 25.9385 12.275 25.418L8.74538 32.5972ZM15.7678 34.229C18.2236 34.229 20.5598 33.6681 22.6517 32.6645L19.1913 25.4516C18.1508 25.9508 16.9944 26.229 15.7678 26.229V34.229ZM15.7678 32.8274C24.0971 32.8274 30.6409 25.8994 30.6409 17.6145H22.6409C22.6409 21.715 19.4485 24.8274 15.7678 24.8274V32.8274ZM30.6409 17.6145C30.6409 9.32959 24.0971 2.40161 15.7678 2.40161V10.4016C19.4485 10.4016 22.6409 13.514 22.6409 17.6145H30.6409ZM15.7678 2.40161C7.43851 2.40161 0.894775 9.32959 0.894775 17.6145H8.89478C8.89478 13.514 12.0871 10.4016 15.7678 10.4016V2.40161ZM0.894775 17.6145C0.894775 25.8994 7.43851 32.8274 15.7678 32.8274V24.8274C12.0871 24.8274 8.89478 21.715 8.89478 17.6145H0.894775ZM12.5708 17.298V17.8406H20.5708V17.298H12.5708ZM12.5708 17.8406V18.1226H20.5708V17.8406H12.5708ZM19.0083 18.1663V17.8406H11.0083V18.1663H19.0083ZM19.0083 17.8406V17.298H11.0083V17.8406H19.0083ZM19.0083 17.298V13.5001H11.0083V17.298H19.0083ZM19.0083 13.5001V9.94092H11.0083V13.5001H19.0083ZM12.5708 9.94092V13.5001H20.5708V9.94092H12.5708ZM12.5708 13.5001V17.298H20.5708V13.5001H12.5708ZM15.7895 5.15963C13.1489 5.15963 11.0083 7.30029 11.0083 9.94092H19.0083C19.0083 11.7186 17.5672 13.1596 15.7895 13.1596V5.15963ZM12.5708 18.1226C12.5708 16.357 14.0021 14.9257 15.7677 14.9257V22.9257C18.4204 22.9257 20.5708 20.7753 20.5708 18.1226H12.5708ZM12.1495 31.9896C11.1569 33.009 9.7521 33.0922 8.74538 32.5972L12.275 25.418C10.4487 24.52 8.04805 24.7346 6.41814 26.4083L12.1495 31.9896ZM3.56185 33.9198C5.39966 35.807 8.4321 35.807 10.2699 33.9198L4.53851 28.3385C5.84118 27.0008 7.99061 27.0008 9.29327 28.3385L3.56185 33.9198ZM3.56188 27.3874C1.79175 29.2051 1.79174 32.1021 3.56185 33.9198L9.29327 28.3385C10.548 29.6269 10.5479 31.6803 9.29325 32.9687L3.56188 27.3874ZM26.45 25.9942C27.7927 27.3731 27.394 29.2994 26.3175 30.2423L21.0465 24.2243C19.0515 25.9717 18.524 29.3219 20.7186 31.5756L26.45 25.9942ZM15.7895 13.1596C14.0119 13.1596 12.5708 11.7186 12.5708 9.94092H20.5708C20.5708 7.30028 18.4302 5.15963 15.7895 5.15963V13.1596ZM5.10971 30.1464C4.0463 29.1983 3.66263 27.2839 4.99605 25.9147L10.7274 31.496C12.9071 29.2577 12.4025 25.9306 10.4336 24.1752L5.10971 30.1464ZM27.8067 33.9198C29.5768 32.1021 29.5768 29.2051 27.8067 27.3874L22.0753 32.9688C20.8206 31.6803 20.8206 29.6269 22.0753 28.3385L27.8067 33.9198ZM21.0987 33.9198C22.9365 35.807 25.9689 35.807 27.8067 33.9198L22.0753 28.3385C23.378 27.0008 25.5274 27.0008 26.8301 28.3385L21.0987 33.9198ZM15.7677 14.9257C17.5574 14.9257 19.0083 16.3765 19.0083 18.1663H11.0083C11.0083 20.7948 13.1391 22.9257 15.7677 22.9257V14.9257ZM25.0042 26.4636C23.3881 24.804 21.0117 24.5783 19.1913 25.4516L22.6517 32.6645C21.648 33.1461 20.257 33.0555 19.2728 32.0449L25.0042 26.4636Z"
        fill="none" mask="url(#path-8-inside-1)" />
      <rect x="15" y="6" width="4" height="1.5" transform="rotate(-90 15 6)" fill="white" />
      <rect x="8" y="2" width="15.5" height="1.5" rx="0.75" fill="white" />

    </symbol>

    <symbol viewBox="0 0 128 24" id="icon-footer-text">
      <path
        d="M1.60253 22.0513C0.468358 20.3682 -0.0946573 18.3503 3.016e-05 16.3077V7.79487C-0.137317 5.73031 0.390444 3.67661 1.50238 1.94872C2.6041 0.615385 4.30676 0 6.81067 0C9.31458 0 10.9171 0.615385 11.9187 1.74359C13.006 3.17255 13.5409 4.96181 13.421 6.76923V8.82051H8.51333V6.46154C8.55297 5.76385 8.45065 5.06533 8.21286 4.41026C8.08576 4.14583 7.88431 3.9264 7.63443 3.78018C7.38455 3.63395 7.09766 3.56763 6.81067 3.58974C6.10958 3.58974 5.60879 3.79487 5.40848 4.30769C5.18191 5.03643 5.08025 5.79984 5.10801 6.5641V17.5385C5.05512 18.2799 5.19327 19.0227 5.50864 19.6923C5.70895 20.2051 6.20973 20.4103 6.91083 20.4103C7.61192 20.4103 8.01255 20.2051 8.21286 19.6923C8.44058 18.9992 8.54242 18.2692 8.51333 17.5385V15.0769H13.421V17.1282C13.5229 18.9651 12.9911 20.7803 11.9187 22.2564C10.9171 23.4872 9.21443 24.1026 6.81067 24.1026C4.40692 24 2.6041 23.3846 1.60253 22.0513Z"
        fill="#111111" />
      <path
        d="M19.3302 0.307617H25.0391L29.2457 23.6922H24.6385L23.8372 18.7692H20.5321L19.7308 23.6922H15.0235L19.3302 0.307617ZM23.4366 15.6922L22.2347 6.56403L21.0329 15.6922H23.4366Z"
        fill="#111111" />
      <path d="M32.7512 4.20505H29.3459V0.307617H41.2645V4.10249H37.8592V23.6922H32.7512V4.20505Z" fill="#111111" />
      <path
        d="M50.3787 0.307617H59.1925V2.76916H53.4836V10.4615H58.0908V12.8204H53.4836V21.4358H59.1925V23.7948H50.2786V0.307617H50.3787Z"
        fill="#111111" />
      <path
        d="M61.7966 0.307617H64L70.5102 15.7948V0.307617H73.1142V23.6922H71.1111L64.5008 7.69223V23.6922H61.7966V0.307617Z"
        fill="#111111" />
      <path
        d="M76.1189 0.307617H84.9327V2.76916H79.2238V10.4615H83.831V12.8204H79.2238V21.4358H84.9327V23.7948H76.1189V0.307617Z"
        fill="#111111" />
      <path
        d="M87.5368 0.3076H92.144C93.9564 0.179397 95.7575 0.685711 97.2519 1.7435C98.3537 2.66657 98.8544 4.3076 98.8544 6.46145C98.8544 9.4358 97.953 11.282 96.0501 11.8973L99.2551 23.5897H96.1502L93.1455 12.6153H90.6416V23.5897H87.4366V0.3076H87.5368ZM91.9437 10.3589C92.9762 10.446 94.0053 10.1553 94.8482 9.53837C95.4491 9.02555 95.7496 7.99991 95.7496 6.46145C95.7774 5.69719 95.6757 4.93378 95.4491 4.20504C95.2237 3.68211 94.8366 3.24964 94.3474 2.97427C93.6576 2.65236 92.9003 2.51137 92.144 2.56401H90.7418V10.2563H91.9437V10.3589Z"
        fill="#111111" />
      <path
        d="M102.861 21.9487C101.82 20.1554 101.331 18.0821 101.459 15.9999V8.20507C101.434 6.71875 101.602 5.23567 101.959 3.79481C102.294 2.71811 102.962 1.78218 103.862 1.12815C104.981 0.450275 106.271 0.128917 107.568 0.20507C109.671 0.20507 111.174 0.71789 112.075 1.8461C113.112 3.33582 113.608 5.14977 113.477 6.9743V7.79481H110.473V7.07687C110.477 6.21789 110.41 5.36008 110.272 4.51276C110.188 3.97732 109.9 3.49792 109.471 3.17943C108.908 2.80104 108.24 2.62099 107.568 2.66661C106.85 2.61949 106.139 2.83785 105.565 3.28199C105.329 3.48529 105.137 3.73569 104.999 4.01787C104.861 4.30004 104.781 4.60805 104.764 4.92302C104.632 5.83993 104.565 6.76543 104.563 7.69225V16.4102C104.49 17.7384 104.694 19.0674 105.164 20.3076C105.565 21.1281 106.366 21.4358 107.568 21.4358C108.043 21.4964 108.524 21.4119 108.952 21.1929C109.38 20.9739 109.734 20.6302 109.972 20.2051C110.501 18.9081 110.741 17.5064 110.673 16.1025V14.4615H107.768V12.1025H113.577V23.6923H111.574L111.274 21.0256C111.011 21.9193 110.465 22.6975 109.72 23.2364C108.976 23.7753 108.078 24.0441 107.167 23.9999C106.34 24.0498 105.513 23.8885 104.761 23.5304C104.01 23.1724 103.357 22.6289 102.861 21.9487Z"
        fill="#111111" />
      <path
        d="M119.987 15.4871L115.08 0.410156H118.084L121.59 11.6922L124.995 0.410156H128L123.092 15.4871V23.6922H120.088V15.4871H119.987Z"
        fill="#111111" />
    </symbol>

    <symbol viewBox="0 0 23 16" id="icon-footer-vk">
      <path
        d="M0.0700912 3.99266C0.0700912 3.37082 0.493211 3.03552 1.33945 2.98675L4.60039 3.00503C4.81925 3.00503 4.96515 3.09648 5.03811 3.27938C5.37368 4.19385 5.74938 4.98334 6.16521 5.64785C6.58103 6.31237 7.12453 7.07748 7.79568 7.94317C7.85404 8.05291 7.94888 8.10778 8.08019 8.10778C8.18233 8.10778 8.26257 8.0651 8.32093 7.97975L8.38659 7.77857L8.40848 4.6145C8.40848 4.39503 8.34647 4.24871 8.22245 4.17556C8.09843 4.1024 7.86863 4.04753 7.53305 4.01095C7.27043 3.97437 7.13912 3.84025 7.13912 3.60859C7.13912 3.55981 7.14641 3.52323 7.161 3.49885C7.4674 2.70631 8.34282 2.31004 9.78726 2.31004L11.0129 2.29175C11.5673 2.29175 12.0269 2.40758 12.3916 2.63925C12.7564 2.87091 12.9388 3.2367 12.9388 3.73661V7.88831C13.0409 7.94927 13.1357 7.97975 13.2233 7.97975C13.4421 7.97975 13.6318 7.87002 13.7923 7.65054C15.3973 5.77283 16.2654 4.51696 16.3967 3.88293C16.3967 3.87073 16.4113 3.84025 16.4405 3.79148C16.5426 3.60859 16.7104 3.45008 16.9438 3.31595C17.1773 3.18183 17.3815 3.09039 17.5566 3.04161C17.615 3.01723 17.6806 3.00503 17.7536 3.00503H21.1459L21.3647 3.02332C21.6565 3.02332 21.8827 3.13916 22.0432 3.37082C22.1015 3.44398 22.1416 3.52323 22.1635 3.60859C22.1854 3.69394 22.2 3.77929 22.2073 3.86464C22.2146 3.94999 22.2182 3.99876 22.2182 4.01095V4.13898C22.1161 4.63889 21.8571 5.17233 21.4413 5.7393C21.0255 6.30627 20.4966 6.91897 19.8546 7.57739C19.2126 8.2358 18.8114 8.66865 18.6509 8.87593C18.5196 9.02225 18.4539 9.15637 18.4539 9.2783C18.4539 9.37584 18.5123 9.48558 18.629 9.60751L21.8243 12.9728C21.9994 13.1678 22.0869 13.3812 22.0869 13.6129C22.0869 13.8933 21.9556 14.125 21.693 14.3079C21.4304 14.4908 21.1167 14.5944 20.7519 14.6188L20.3799 14.6371H17.0533C17.0387 14.6371 17.0095 14.6401 16.9657 14.6462C16.9219 14.6523 16.8928 14.6554 16.8782 14.6554C16.5572 14.6554 16.2581 14.5396 15.9809 14.3079C15.8787 14.2103 15.193 13.491 13.9236 12.1497C13.8507 12.0644 13.7485 11.9851 13.6172 11.912C13.5589 12.1071 13.4823 12.3875 13.3874 12.7533C13.2926 13.1191 13.2233 13.3812 13.1795 13.5397L13.1139 13.8506C12.968 14.2774 12.6616 14.5335 12.1947 14.6188L11.8883 14.6371H9.74349C8.53249 14.6371 7.32514 14.1738 6.12144 13.2471C4.91773 12.3204 3.8344 11.1225 2.87144 9.65323C1.90848 8.18398 1.01117 6.47392 0.179519 4.52306C0.106567 4.36455 0.0700912 4.18775 0.0700912 3.99266ZM13.2233 8.72962C12.9169 8.72962 12.6397 8.65951 12.3916 8.51929C12.1436 8.37907 12.0196 8.18703 12.0196 7.94317V3.73661C12.0196 3.49275 11.9466 3.319 11.8007 3.21536C11.6548 3.11172 11.3995 3.0599 11.0347 3.0599L9.78726 3.09648C9.15988 3.09648 8.68569 3.18793 8.36471 3.37082C9.00668 3.62687 9.32767 4.04143 9.32767 4.6145V7.83344C9.29849 8.13826 9.15258 8.39126 8.88996 8.59245C8.62733 8.79363 8.33552 8.89422 8.01454 8.89422C7.57683 8.89422 7.24125 8.71742 7.0078 8.36383C5.86975 6.92506 5.02351 5.55945 4.46908 4.267L4.27211 3.79148L1.36134 3.77319C1.17166 3.77319 1.06588 3.78233 1.044 3.80062C1.02211 3.81891 1.01117 3.87073 1.01117 3.95608C1.01117 4.06582 1.02576 4.18165 1.05494 4.30358L1.51454 5.32779C2.74013 7.97366 4.07149 10.0586 5.50864 11.5828C6.94579 13.1069 8.35741 13.8689 9.74349 13.8689H11.932C12.0196 13.8689 12.0852 13.8476 12.129 13.8049C12.1728 13.7623 12.2093 13.6799 12.2384 13.558L12.2822 13.3751L12.698 11.7657C12.8148 11.5462 12.9169 11.3999 13.0044 11.3267C13.1649 11.1926 13.3546 11.1255 13.5735 11.1255C13.9236 11.1255 14.2811 11.3023 14.6459 11.6559L16.5061 13.6312C16.6228 13.7897 16.7469 13.8689 16.8782 13.8689H20.4893C20.927 13.8689 21.1459 13.7775 21.1459 13.5946C21.1459 13.5336 21.124 13.4727 21.0802 13.4117L17.9068 10.1013C17.6588 9.84527 17.5347 9.57093 17.5347 9.2783C17.5347 8.98567 17.6515 8.70523 17.8849 8.43699C18.0746 8.19313 18.443 7.78771 18.9901 7.22074C19.5373 6.65377 20.0151 6.12338 20.4236 5.62956C20.8322 5.13575 21.1021 4.68766 21.2334 4.28529L21.299 4.04753C21.2845 4.02314 21.2772 3.98352 21.2772 3.92865C21.2772 3.87378 21.2699 3.82806 21.2553 3.79148H17.8193C17.6004 3.86464 17.4253 3.97437 17.294 4.12069L17.1627 4.46819C16.7979 5.3095 15.8423 6.60805 14.2957 8.36383C13.9893 8.60769 13.6318 8.72962 13.2233 8.72962Z"
        fill="currentColor" />
    </symbol>
    <symbol viewBox="0 0 16 16" id="icon-footer-insta">
      <path
        d="M7.98438 0.0625C9.31771 0.0625 10.4062 0.078125 11.25 0.109375C11.9688 0.140625 12.6094 0.265625 13.1719 0.484375C13.7135 0.692708 14.1823 0.994792 14.5781 1.39062C14.974 1.78646 15.276 2.25521 15.4844 2.79687C15.7031 3.35937 15.8281 4 15.8594 4.71875C15.8906 5.5625 15.9062 6.65104 15.9062 7.98437C15.9062 9.31771 15.8906 10.4062 15.8594 11.25C15.8281 11.9687 15.7031 12.6094 15.4844 13.1719C15.276 13.7135 14.974 14.1823 14.5781 14.5781C14.1823 14.974 13.7135 15.276 13.1719 15.4844C12.6094 15.7031 11.9688 15.8281 11.25 15.8594C10.4062 15.8906 9.31771 15.9062 7.98438 15.9062C6.65104 15.9062 5.5625 15.8906 4.71875 15.8594C4 15.8281 3.35938 15.7031 2.79688 15.4844C2.25521 15.276 1.78646 14.974 1.39062 14.5781C0.994792 14.1823 0.692708 13.7135 0.484375 13.1719C0.265625 12.6094 0.140625 11.9687 0.109375 11.25C0.078125 10.4062 0.0625 9.31771 0.0625 7.98437C0.0625 6.65104 0.078125 5.5625 0.109375 4.71875C0.140625 4 0.265625 3.35937 0.484375 2.79687C0.692708 2.25521 0.994792 1.78646 1.39062 1.39062C1.78646 0.994792 2.25521 0.692708 2.79688 0.484375C3.35938 0.265625 4 0.140625 4.71875 0.109375C5.5625 0.078125 6.65104 0.0625 7.98438 0.0625ZM7.98438 1.09375C6.59896 1.09375 5.46875 1.10937 4.59375 1.14062C4.03125 1.16146 3.51042 1.26042 3.03125 1.4375C2.28125 1.75 1.75 2.28125 1.4375 3.03125C1.26042 3.51042 1.16146 4.03125 1.14062 4.59375C1.10938 5.46875 1.09375 6.59896 1.09375 7.98437C1.09375 9.36979 1.10938 10.5 1.14062 11.375C1.16146 11.9375 1.26042 12.4583 1.4375 12.9375C1.75 13.6875 2.28125 14.2187 3.03125 14.5312C3.51042 14.7083 4.03125 14.8073 4.59375 14.8281C5.46875 14.8594 6.59896 14.875 7.98438 14.875C9.36979 14.875 10.5 14.8594 11.375 14.8281C11.9375 14.8073 12.4583 14.7083 12.9375 14.5312C13.6875 14.2187 14.2188 13.6875 14.5312 12.9375C14.7083 12.4583 14.8073 11.9375 14.8281 11.375C14.8594 10.5 14.875 9.36979 14.875 7.98437C14.875 6.59896 14.8594 5.46875 14.8281 4.59375C14.8073 4.03125 14.7083 3.51042 14.5312 3.03125C14.2188 2.28125 13.6875 1.75 12.9375 1.4375C12.4583 1.26042 11.9375 1.16146 11.375 1.14062C10.5 1.10937 9.36979 1.09375 7.98438 1.09375ZM7.98438 11.1562C8.85938 11.1562 9.60677 10.8464 10.2266 10.2266C10.8464 9.60677 11.1562 8.85937 11.1562 7.98437C11.1562 7.10937 10.8464 6.36198 10.2266 5.74219C9.60677 5.1224 8.85938 4.8125 7.98438 4.8125C7.10938 4.8125 6.36198 5.1224 5.74219 5.74219C5.1224 6.36198 4.8125 7.10937 4.8125 7.98437C4.8125 8.85937 5.1224 9.60677 5.74219 10.2266C6.36198 10.8464 7.10938 11.1562 7.98438 11.1562ZM7.98438 3.92187C9.10938 3.92187 10.0677 4.31771 10.8594 5.10937C11.651 5.90104 12.0469 6.85937 12.0469 7.98437C12.0469 9.10937 11.651 10.0677 10.8594 10.8594C10.0677 11.651 9.10938 12.0469 7.98438 12.0469C6.85938 12.0469 5.90104 11.651 5.10938 10.8594C4.31771 10.0677 3.92188 9.10937 3.92188 7.98437C3.92188 6.85937 4.31771 5.90104 5.10938 5.10937C5.90104 4.31771 6.85938 3.92187 7.98438 3.92187ZM13.1719 3.76562C13.1719 4.02604 13.0781 4.2474 12.8906 4.42969C12.7031 4.61198 12.474 4.70312 12.2031 4.70312C11.9427 4.70312 11.7214 4.61198 11.5391 4.42969C11.3568 4.2474 11.2656 4.02604 11.2656 3.76562C11.2656 3.49479 11.3568 3.26562 11.5391 3.07812C11.7214 2.89062 11.9427 2.79687 12.2031 2.79687C12.4635 2.79687 12.6901 2.89323 12.8828 3.08594C13.0755 3.27865 13.1719 3.50521 13.1719 3.76562Z"
        fill="currentColor" />
    </symbol>

    <symbol viewBox="0 0 22 22" id="icon-footer-fb">
      <path fill="none"
        d="M16.5 1.83325H13.75C12.5344 1.83325 11.3686 2.30674 10.5091 3.14957C9.64956 3.99239 9.16667 5.1355 9.16667 6.32743V9.02394H6.41667V12.6193H9.16667V19.81H12.8333V12.6193H15.5833L16.5 9.02394H12.8333V6.32743C12.8333 6.08905 12.9299 5.86042 13.1018 5.69186C13.2737 5.52329 13.5069 5.4286 13.75 5.4286H16.5V1.83325Z"
        stroke="currentColor" stroke-width="1.1" stroke-linecap="round" stroke-linejoin="round" />
    </symbol>

  <symbol  viewBox="0 0 78 80" id="icon-gift">
            <path
              d="M64.0156 34.7129H14.031C12.2766 34.7129 10.8494 33.2954 10.8494 31.5526V22.0845C10.8494 20.3417 12.2766 18.9236 14.031 18.9236H64.0149C65.7687 18.9236 67.1953 20.3417 67.1953 22.0845V31.5533C67.1959 33.2954 65.7693 34.7129 64.0156 34.7129ZM14.031 21.3457C13.6276 21.3457 13.2869 21.6842 13.2869 22.0845V31.5533C13.2869 31.9602 13.6208 32.2914 14.031 32.2914H64.0149C64.4244 32.2914 64.7578 31.9602 64.7578 31.5533V22.0845C64.7578 21.6836 64.4171 21.3457 64.0149 21.3457H14.031Z"
              fill="white" />
            <path
              d="M57.0447 67.1491H20.999C17.6218 67.1491 14.8741 64.4193 14.8741 61.0628V33.5018C14.8741 32.8333 15.4201 32.2908 16.0929 32.2908C16.7656 32.2908 17.3116 32.8333 17.3116 33.5018V61.0628C17.3116 63.0835 18.9661 64.7269 20.999 64.7269H57.0447C59.077 64.7269 60.7308 63.0835 60.7308 61.0628V33.5018C60.7308 32.8333 61.2768 32.2908 61.9496 32.2908C62.6223 32.2908 63.1683 32.8333 63.1683 33.5018V61.0628C63.1683 64.4193 60.4213 67.1491 57.0447 67.1491Z"
              fill="white" />
            <path
              d="M39.0225 67.1491C38.3498 67.1491 37.8038 66.6071 37.8038 65.938V33.5018C37.8038 32.8333 38.3498 32.2908 39.0225 32.2908C39.6953 32.2908 40.2413 32.8333 40.2413 33.5018V65.9374C40.2413 66.6071 39.6959 67.1491 39.0225 67.1491Z"
              fill="white" />
            <path
              d="M23.8113 21.3416C19.9966 19.2876 18.5731 14.533 20.6383 10.7417C22.7022 6.95225 27.4864 5.53711 31.303 7.58746C37.117 10.7169 40.2565 19.4475 40.3869 19.8175L38.0877 20.621C38.0585 20.5387 35.1256 12.3997 30.1433 9.71773C27.5078 8.30199 24.2062 9.27933 22.7821 11.8946C21.3567 14.5124 22.339 17.7944 24.9734 19.2119L23.8113 21.3416Z"
              fill="white" />
            <path
              d="M54.2313 21.3416L53.071 19.2113C54.3477 18.524 55.2782 17.385 55.6926 16.0038C56.1063 14.622 55.9534 13.1626 55.2617 11.8952C54.5719 10.6266 53.4263 9.70258 52.0363 9.29142C50.6457 8.88026 49.1783 9.03164 47.9023 9.71771C42.9201 12.399 39.9871 20.538 39.9579 20.6204L37.6587 19.8168C37.7891 19.4469 40.928 10.7162 46.7421 7.58744C48.5897 6.59315 50.7182 6.37394 52.7316 6.96979C54.7468 7.56503 56.4061 8.90508 57.4061 10.7417C58.4073 12.5777 58.6285 14.6916 58.0289 16.6941C57.4287 18.696 56.0801 20.3461 54.2313 21.3416Z"
              fill="white" />
            <path
              d="M61.9496 50.9317H16.0929C15.4201 50.9317 14.8741 50.3891 14.8741 49.7206C14.8741 49.0521 15.4201 48.5095 16.0929 48.5095H61.9496C62.6223 48.5095 63.1683 49.0521 63.1683 49.7206C63.1683 50.3891 62.6229 50.9317 61.9496 50.9317Z"
              fill="white" />
          </symbol>


  <symbol viewBox="0 0 19 15" id="icon-checkbox">
                  <path d="M7 11.718L1.3 5.26951L0.25 6.45739L7 14.0938L18.25 1.36648L17.2 0.09375L7 11.718Z"
                    fill="#68B738" />
                </symbol>

<symbol viewBox="0 0 19 15" id="icon-checkbox">
                  <path d="M7 11.718L1.3 5.26951L0.25 6.45739L7 14.0938L18.25 1.36648L17.2 0.09375L7 11.718Z"
                    fill="#68B738" />

<symbol viewBox="0 0 27 34" id="icon-htmlacadem" >
<path d="M13.6426 0.0157537L13.5 0L0 1.40733V26.0129L13.5 34L27 26.0129V1.40733L13.6426 0.0157537ZM25.2344 25.0151L13.5 31.9573L1.76561 25.0151V14.9293L13.4507 21.8451L13.4701 23.0984L5.45351 18.3548L5.44295 19.5801L13.4894 24.3885L13.5088 25.675L5.46408 20.9174L5.45351 22.1427L13.5 26.9511L21.6239 22.1182V20.8929V16.909L25.2432 14.7595L25.2344 25.0151ZM25.2344 13.4519L22.0147 15.3319L20.5325 16.2071L13.4666 12.0201L13.456 13.2454L19.4957 16.818L19.4429 16.8495L19.3126 16.9247L18.4536 17.4166L13.4666 14.4689L13.456 15.6942L17.3921 18.0222L16.4591 18.6314L16.438 18.6436L13.4666 16.902L13.456 18.1273L15.4029 19.2615L13.4155 20.4483L1.7973 13.5762L13.4349 6.61831L25.2344 13.4519ZM25.2344 12.2266L13.4401 5.31075L1.76561 12.2196V2.9897L13.5 1.76442L25.2344 2.9897V12.2266Z" fill="currentColor"/>
                </symbol>





  </svg>
